<?xml version="1.0" encoding="UTF-8"?>
<svg width="130px" height="64px" viewBox="0 0 130 64" version="1.1" xmlns="http://www.w3.org/2000/svg" xmlns:xlink="http://www.w3.org/1999/xlink">
    <!-- Generator: Sketch 61.2 (89653) - https://sketch.com -->
    <title>Combined Shape</title>
    <desc>Created with Sketch.</desc>
    <g id="Website" stroke="none" stroke-width="1" fill="none" fill-rule="evenodd">
        <g id="Home" transform="translate(-120.000000, -44.000000)" fill="#000000">
            <path d="M250,88 C250,98.9306357 241.231271,107.813225 230.344489,107.997093 L230,108 L230,88 L250,88 Z M228,88 L228,108 L208,108 L208,88 L228,88 Z M206,88 C206,98.9306357 197.231271,107.813225 186.344489,107.997093 L186,108 L186,88 L206,88 Z M184,88 L184,108 C172.954305,108 164,99.045695 164,88 L184,88 Z M162,88 L162,108 L142,108 L142,88 L162,88 Z M140,88 L140,108 C128.954305,108 120,99.045695 120,88 L140,88 Z M250,66 L250,86 L230,86 L230,66 L250,66 Z M218,66 C223.522847,66 228,70.4771525 228,76 C228,81.5228475 223.522847,86 218,86 C212.477153,86 208,81.5228475 208,76 C208,70.4771525 212.477153,66 218,66 Z M186,66 C196.930636,66 205.813225,74.7687286 205.997093,85.6555106 L206,86 L186,86 L186,66 Z M184,66 L184,86 C172.954305,86 164,77.045695 164,66 L184,66 Z M162,66 L162,86 L142,86 C142,75.0693643 150.768729,66.186775 161.655511,66.0029071 L162,66 Z M140,66 L140,86 L120,86 L120,66 L140,66 Z M230,44 C240.930636,44 249.813225,52.7687286 249.997093,63.6555106 L250,64 L230,64 L230,44 Z M228,44 L228,64 L208,64 L208,44 L228,44 Z M186,44 C196.930636,44 205.813225,52.7687286 205.997093,63.6555106 L206,64 L186,64 L186,44 Z M184,44 L184,64 L164,64 C164,53.0693643 172.768729,44.186775 183.655511,44.0029071 L184,44 Z M162,44 C162,55.045695 153.045695,64 142,64 L142,64 L142,44 Z M140,44 L140,64 L120,64 C120,53.0693643 128.768729,44.186775 139.655511,44.0029071 L140,44 Z" id="Combined-Shape"></path>
        </g>
    </g>
</svg>